<?xml version="1.0" encoding="UTF-8" standalone="no"?><!DOCTYPE svg PUBLIC "-//W3C//DTD SVG 1.1//EN" "http://www.w3.org/Graphics/SVG/1.1/DTD/svg11.dtd"><svg width="100%" height="100%" viewBox="0 0 144 144" version="1.1" xmlns="http://www.w3.org/2000/svg" xmlns:xlink="http://www.w3.org/1999/xlink" xml:space="preserve" xmlns:serif="http://www.serif.com/" style="fill-rule:evenodd;clip-rule:evenodd;stroke-linejoin:round;stroke-miterlimit:2;"><rect id="favicon" x="0" y="0" width="144" height="144" style="fill:#fff;"/><clipPath id="_clip1"><rect x="0" y="0" width="144" height="144"/></clipPath><g clip-path="url(#_clip1)"><g><path d="M29.203,82.248c0.544,-5.804 1.632,-11.427 3.265,-17.05c0.907,-4.535 2.539,-9.069 6.167,-12.153c2.177,-1.632 4.353,-2.721 6.711,-2.721c6.53,0 9.976,4.897 11.064,10.883c0.726,3.628 0.544,7.437 1.088,11.427c0,1.995 0.181,4.172 0.544,6.167c0.363,4.353 1.088,8.525 1.632,12.878c0.181,3.99 0,7.981 0.181,12.153c0.181,2.539 0.181,5.079 0.544,7.437c1.27,7.074 6.893,11.064 13.785,11.064c11.971,0 14.873,-9.25 15.417,-19.226c0.544,-7.981 0.726,-15.962 0.726,-23.942c0,-8.525 -0.363,-16.869 -1.27,-25.212c-1.27,-19.771 -17.413,-31.379 -36.095,-31.379c-7.799,0 -13.604,1.995 -20.496,5.804c-1.27,0.726 -2.358,1.27 -3.628,1.27c-0.907,0 -1.995,-0.363 -3.083,-1.27c-1.632,-0.907 -3.083,-2.177 -4.897,-2.721c-2.177,-0.726 -4.535,-0.907 -6.711,-0.907c-10.883,0 -12.515,6.348 -13.604,15.417c-0.363,4.897 -0.544,9.795 -0.544,14.692c0,6.893 0.181,13.422 0.363,20.133c0,9.613 0,19.226 0.181,28.84c0,10.157 3.083,18.32 14.329,18.32c10.157,0 13.785,-6.167 14.329,-15.055c0.181,-4.353 0,-8.525 0,-12.697l0,-12.153Z" style="fill-rule:nonzero;"/><path d="M83.436,70.095l0,33.193c0,7.074 1.088,14.511 8.706,17.231c1.995,0.544 3.99,0.907 6.167,0.907c3.628,0 7.255,-1.088 9.795,-3.809c2.721,-2.539 3.628,-5.986 3.809,-9.795c0.181,-7.981 0.181,-16.143 0.363,-24.124c0.726,-12.153 1.451,-18.682 8.525,-29.384c1.814,-3.265 4.897,-5.079 8.706,-5.623c5.804,-0.907 12.878,-2.358 14.148,-9.432c0.544,-3.628 0.544,-7.618 -0.726,-11.246c-1.27,-4.897 -5.623,-6.348 -10.157,-6.348c-2.358,0 -4.535,0.363 -6.711,0.907c-4.172,1.27 -7.618,3.265 -11.246,5.441c-1.27,0.907 -2.358,1.27 -3.446,1.27c-1.27,0 -2.358,-0.544 -3.628,-1.814c-1.27,-1.088 -2.902,-2.177 -4.353,-2.721c-1.814,-0.726 -3.628,-0.907 -5.441,-0.907c-6.711,0 -11.246,0.544 -13.241,7.981c-1.632,5.26 -1.27,10.883 -1.451,16.324c-0.181,7.437 0.181,14.511 0.181,21.947Z" style="fill-rule:nonzero;"/></g></g></svg>